<?xml version="1.0" standalone="no"?>
<!DOCTYPE svg PUBLIC "-//W3C//DTD SVG 20010904//EN"
 "http://www.w3.org/TR/2001/REC-SVG-20010904/DTD/svg10.dtd">
<svg version="1.0" xmlns="http://www.w3.org/2000/svg"
 width="1080.000000pt" height="1080.000000pt" viewBox="0 0 1080.000000 1080.000000"
 preserveAspectRatio="xMidYMid meet">

<g transform="translate(0.000000,1080.000000) scale(0.100000,-0.100000)"
fill="#000000" stroke="none">
<path d="M8305 9713 c-1124 -69 -2153 -441 -3041 -1099 -359 -265 -747 -640
-1017 -981 l-57 -71 -67 -6 c-455 -39 -690 -83 -1026 -193 -741 -242 -1278
-604 -1667 -1124 -297 -397 -386 -663 -335 -1002 65 -431 390 -780 825 -888
93 -23 110 -23 705 -30 568 -6 616 -8 695 -27 239 -57 430 -159 600 -319 189
-178 313 -399 371 -661 20 -91 22 -134 29 -702 6 -492 10 -617 23 -670 78
-329 266 -576 557 -733 231 -124 502 -158 755 -93 118 31 223 79 372 172 287
179 511 377 733 649 337 412 633 1095 739 1705 24 134 51 365 51 430 0 112 -1
110 164 248 1234 1035 1956 2526 2002 4137 9 309 -14 459 -102 644 -151 320
-446 543 -799 605 -83 15 -346 19 -510 9z m478 -746 c79 -36 148 -104 183
-180 28 -60 29 -66 28 -212 -3 -221 -32 -532 -75 -790 -198 -1196 -742 -2115
-1771 -2997 -551 -473 -1186 -888 -1931 -1261 -109 -55 -202 -95 -207 -91 -4
5 -15 43 -25 84 -157 660 -655 1204 -1300 1418 -66 22 -147 46 -180 53 -33 6
-64 15 -68 19 -10 8 82 203 198 420 528 990 1128 1787 1777 2362 651 576 1354
929 2180 1092 275 55 497 82 893 110 28 2 93 3 146 1 78 -1 105 -6 152 -28z
m-5229 -2259 c-15 -24 -44 -68 -64 -98 -52 -77 -234 -381 -334 -557 -153 -269
-430 -817 -492 -973 l-17 -41 -286 3 c-286 3 -286 3 -343 30 -79 37 -142 98
-181 177 -29 59 -32 74 -32 151 1 76 4 92 34 150 79 154 267 399 403 525 188
174 365 293 618 417 207 100 323 146 525 208 203 62 203 62 169 8z m3156
-3293 c-51 -176 -130 -374 -230 -580 -125 -255 -260 -447 -449 -635 -159 -158
-453 -365 -554 -391 -150 -37 -326 51 -399 199 l-33 67 -3 285 -3 285 98 44
c438 198 1099 560 1508 825 59 38 101 60 103 53 1 -7 -16 -75 -38 -152z"/>
<path d="M6518 7550 c-281 -45 -541 -238 -667 -495 -70 -142 -86 -217 -85
-395 1 -138 3 -164 27 -243 127 -416 501 -682 922 -654 385 26 714 297 816
672 31 115 32 314 1 440 -77 309 -319 560 -627 650 -101 29 -285 41 -387 25z"/>
<path d="M2395 3594 c-224 -33 -438 -128 -581 -258 -129 -116 -361 -505 -509
-852 -109 -254 -212 -600 -221 -744 -24 -357 265 -659 631 -660 112 0 401 80
680 189 345 134 812 402 929 532 109 121 199 289 243 454 24 90 27 117 26 265
0 146 -3 176 -26 263 -84 316 -292 569 -584 709 -143 69 -266 98 -428 103 -71
2 -143 1 -160 -1z m249 -742 c67 -23 157 -108 192 -179 55 -112 42 -264 -31
-365 -73 -100 -481 -309 -830 -424 -71 -23 -131 -41 -133 -40 -4 5 61 199 103
306 88 225 279 583 342 641 88 82 230 106 357 61z"/>
</g>
</svg>
